Coordinates
version=1
nRows=6
nColumns=107
inDegrees=yes

Units are S.I. units (second, meters, Newtons, ...)
If the header above contains a line with 'inDegrees', this indicates whether rotational values are in degrees (yes) or radians (no).

endheader
time	sternoclavicular_r2	sternoclavicular_r3	unrotscap_r3	unrotscap_r2	acromioclavicular_r2	acromioclavicular_r3	acromioclavicular_r1	unrothum_r1	unrothum_r3	unrothum_r2	elv_angle	shoulder_elv	shoulder1_r2	shoulder_rot	elbow_flexion	pro_sup	deviation	flexion	proximal_distal_r1	proximal_distal_r3	cmc_flexion	cmc_abduction	mp_flexion	ip_flexion	mcp2_flexion	mcp2_abduction	pm2_flexion	md2_flexion	mcp3_flexion	mcp3_abduction	pm3_flexion	md3_flexion	mcp4_flexion	mcp4_abduction	pm4_flexion	md4_flexion	mcp5_flexion	mcp5_abduction	pm5_flexion	md5_flexion	bicpt_tx	bicpt_ty	bicpt_tz	bicpt2_tx	bicpt2_ty	bicpt2_tz	ptpt_tx	ptpt_ty	ptpt_tz	FCUpt_tx	FCUpt_ty	FCUpt_tz	EDCpt_tx	EDCpt_ty	EDCpt_tz	APLpt_tx	APLpt_ty	APLpt_tz	FPLpt_tx	FPLpt_ty	FPLpt_tz	FPLpt2_tx	FPLpt2_ty	FPLpt2_tz	PEC1pt2_tx	PEC1pt2_ty	PEC1pt2_tz	PEC1pt3_tx	PEC1pt3_ty	PEC1pt3_tz	PEC2pt2_tx	PEC2pt2_ty	PEC2pt2_tz	PEC2pt3_tx	PEC2pt3_ty	PEC2pt3_tz	PEC3pt2_tx	PEC3pt2_ty	PEC3pt2_tz	PEC3pt3_tx	PEC3pt3_ty	PEC3pt3_tz	DELT2pt2a_tx	DELT2pt2a_ty	DELT2pt2a_tz	DELT2pt2_tx	DELT2pt2_ty	DELT2pt2_tz	LAT1pt2_tx	LAT1pt2_ty	LAT1pt2_tz	LAT1pt3_tx	LAT1pt3_ty	LAT1pt3_tz	LAT2pt2_tx	LAT2pt2_ty	LAT2pt2_tz	LAT2pt3_tx	LAT2pt3_ty	LAT2pt3_tz	LAT3pt2_tx	LAT3pt2_ty	LAT3pt2_tz	LAT3pt3_tx	LAT3pt3_ty	LAT3pt3_tz
      0.40000000	     -0.32061007	      0.13579529	     -0.13579529	      0.32061007	     -0.06491702	      0.52463650	      0.23582050	     -0.23582050	     -0.52463650	      0.06491702	     99.51492852	     75.90728450	     -1.73686316	    -27.53251784	     29.64435512	     64.90162240	      0.31088122	     -0.72511696	      0.34280360	     -0.36255848	     33.38027947	    -14.17019704	    -13.32249812	     -1.84068072	     90.61006218	     13.33906598	     81.74499910	     72.29549630	     90.45491537	      3.05469581	     83.42199283	     53.29631052	     90.18086030	    -13.03714170	     92.32089809	     40.14672639	     88.99981314	    -14.05262367	     97.44305153	      5.39470137	      0.00088054	     -0.03099770	     -0.00484728	      0.01591163	     -0.01825303	     -0.00437704	      0.00275450	     -0.06800085	     -0.00527817	      0.01038299	     -0.18288901	     -0.00032970	     -0.00778818	      0.00248890	     -0.00020038	      0.00030157	      0.00012063	      0.00060314	      0.00038601	      0.00115802	      0.00065139	     -0.00001199	     -0.00021549	     -0.00025859	      0.00248807	      0.00872935	      0.00607259	     -0.00813895	      0.01965157	     -0.01863947	      0.00248807	      0.00872935	      0.00607259	      0.00054822	      0.01821776	     -0.00957276	      0.00393810	      0.00485428	      0.01594353	      0.00000000	      0.00770541	      0.00000000	     -0.00712686	     -0.03293536	     -0.00635304	      0.01774347	     -0.00067377	     -0.00633527	     -0.00088559	      0.01484410	     -0.00607259	      0.00244590	      0.02142274	     -0.01771171	     -0.00594608	      0.01286208	     -0.00544003	     -0.01239820	      0.02715796	     -0.03040511	     -0.02327825	      0.01438023	     -0.00729554	     -0.01543449	      0.03137504	     -0.03799585
      0.43333333	     -0.31779849	      0.13460444	     -0.13460444	      0.31779849	     -0.06434773	      0.52003572	      0.23375248	     -0.23375248	     -0.52003572	      0.06434773	    100.37807317	     75.24161781	     -1.75192787	    -31.33965839	     29.77527034	     68.66584133	      0.30093839	     -0.72928689	      0.33428899	     -0.36464345	     34.86651373	    -14.08326825	    -15.18567235	     -1.52770601	     91.46308800	     13.39929711	     81.51798932	     71.06160197	     91.12397885	      3.21201285	     82.98184357	     52.75103889	     90.64699531	    -13.00662657	     91.63869238	     39.79682525	     89.39199832	    -14.05267986	     95.86709625	      5.42443168	      0.00088487	     -0.03101270	     -0.00484970	      0.01568802	     -0.01828860	     -0.00383384	      0.00247637	     -0.06818069	     -0.00558140	      0.01079309	     -0.18278208	     -0.00028050	     -0.00823988	      0.00267315	     -0.00028204	      0.00030078	      0.00012031	      0.00060156	      0.00038500	      0.00115500	      0.00064969	     -0.00001270	     -0.00019633	     -0.00023560	      0.00246626	      0.00865279	      0.00601933	     -0.00806758	      0.01947924	     -0.01847601	      0.00246626	      0.00865279	      0.00601933	      0.00054341	      0.01805800	     -0.00948881	      0.00391275	      0.00481171	      0.01588098	      0.00000000	      0.00756994	      0.00000000	     -0.00706436	     -0.03264653	     -0.00624057	      0.01945988	     -0.00080307	     -0.00816189	     -0.00087782	      0.01471393	     -0.00601933	      0.00242445	      0.02123487	     -0.01755639	     -0.00589393	      0.01274928	     -0.00539232	     -0.01228947	      0.02691980	     -0.03013847	     -0.02307412	      0.01425412	     -0.00723156	     -0.01529914	      0.03109989	     -0.03766264
      0.46666667	     -0.31884625	      0.13504822	     -0.13504822	      0.31884625	     -0.06455988	      0.52175024	      0.23452314	     -0.23452314	     -0.52175024	      0.06455988	    100.09312871	     75.48968457	     -1.74695465	    -29.98337769	     29.69978982	     67.51072435	      0.31305370	     -0.71122180	      0.34464221	     -0.35561090	     34.87640706	    -13.93407943	    -15.97364197	      0.31741322	     91.16342908	     13.40461567	     82.03083574	     69.54960742	     91.05514530	      3.18586035	     83.12636230	     51.56200440	     90.58427197	    -13.01680862	     91.58098226	     40.12818756	     89.31711614	    -14.05739856	     96.23407498	      5.42356977	      0.00088238	     -0.03100405	     -0.00484830	      0.01576017	     -0.01826809	     -0.00400269	      0.00256172	     -0.06812550	     -0.00548835	      0.01066677	     -0.18281533	     -0.00029676	     -0.00810127	      0.00261613	     -0.00025615	      0.00030407	      0.00012163	      0.00060814	      0.00038921	      0.00116763	      0.00065679	     -0.00001269	     -0.00019615	     -0.00023538	      0.00247439	      0.00868132	      0.00603918	     -0.00809418	      0.01954346	     -0.01853693	      0.00247439	      0.00868132	      0.00603918	      0.00054520	      0.01811754	     -0.00952010	      0.00392222	      0.00482757	      0.01590442	      0.00000000	      0.00762028	      0.00000000	     -0.00708765	     -0.03275416	     -0.00628236	      0.01887098	     -0.00075652	     -0.00749042	     -0.00088071	      0.01476244	     -0.00603918	      0.00243245	      0.02130488	     -0.01761427	     -0.00591336	      0.01279132	     -0.00541010	     -0.01232999	      0.02700855	     -0.03023784	     -0.02315019	      0.01430111	     -0.00725540	     -0.01534958	      0.03120243	     -0.03778681
      0.50000000	     -0.32148077	      0.13616408	     -0.13616408	      0.32148077	     -0.06509332	      0.52606129	      0.23646093	     -0.23646093	     -0.52606129	      0.06509332	     99.44626078	     76.11342967	     -1.73566468	    -26.73035619	     29.37962741	     64.17231781	      0.32134295	     -0.72241940	      0.35158758	     -0.36120970	     33.83604014	    -13.85008157	    -13.93885501	     -1.93652444	     91.03941112	     13.36421804	     81.80279840	     71.49367729	     90.93404967	      3.05208707	     83.28583668	     52.63858329	     90.65298406	    -13.05221387	     91.76260808	     40.51949254	     89.55597409	    -14.06171164	     96.79268639	      5.38286469	      0.00087179	     -0.03096735	     -0.00484239	      0.01595122	     -0.01818112	     -0.00447999	      0.00280839	     -0.06796600	     -0.00521942	      0.01030404	     -0.18290927	     -0.00033801	     -0.00770066	      0.00245371	     -0.00018544	      0.00030208	      0.00012083	      0.00060416	      0.00038666	      0.00115998	      0.00065249	     -0.00001226	     -0.00020987	     -0.00025185	      0.00249483	      0.00875305	      0.00608908	     -0.00816106	      0.01970494	     -0.01869009	      0.00249483	      0.00875305	      0.00608908	      0.00054971	      0.01826724	     -0.00959876	      0.00394591	      0.00486746	      0.01596268	      0.00000000	      0.00774761	      0.00000000	     -0.00714621	     -0.03302480	     -0.00638808	      0.01735714	     -0.00064709	     -0.00597382	     -0.00088799	      0.01488442	     -0.00608908	      0.00245255	      0.02148092	     -0.01775982	     -0.00596222	      0.01289701	     -0.00545480	     -0.01243187	      0.02723172	     -0.03048768	     -0.02334147	      0.01441928	     -0.00731535	     -0.01547641	      0.03146024	     -0.03809903
      0.53333333	     -0.31779352	      0.13460234	     -0.13460234	      0.31779352	     -0.06434672	      0.52002758	      0.23374882	     -0.23374882	     -0.52002758	      0.06434672	    100.17823581	     75.24044015	     -1.74844005	    -31.09559236	     29.99852295	     67.12500198	      0.28377712	     -0.75817785	      0.31921190	     -0.37908892	     32.76747077	    -12.57926404	    -12.25787658	     -4.46067965	     91.29805707	     12.57717974	     79.01882360	     73.86337035	     90.95989546	      2.86025686	     80.89624267	     53.81612757	     89.97221272	    -12.19659564	     91.51404533	     41.01694768	     88.81462840	    -13.50914146	     96.52220555	      5.23407442	      0.00089226	     -0.03103829	     -0.00485382	      0.01578346	     -0.01834925	     -0.00405859	      0.00259022	     -0.06810708	     -0.00545728	      0.01062469	     -0.18282634	     -0.00030193	     -0.00805498	      0.00259720	     -0.00024769	      0.00029433	      0.00011773	      0.00058865	      0.00037674	      0.00113022	      0.00063575	     -0.00001154	     -0.00022269	     -0.00026722	      0.00246622	      0.00865266	      0.00601924	     -0.00806745	      0.01947893	     -0.01847572	      0.00246622	      0.00865266	      0.00601924	      0.00054340	      0.01805772	     -0.00948866	      0.00391271	      0.00481163	      0.01588087	      0.00000000	      0.00756971	      0.00000000	     -0.00706425	     -0.03264602	     -0.00624037	      0.01935575	     -0.00079466	     -0.00803942	     -0.00087781	      0.01471370	     -0.00601924	      0.00242442	      0.02123454	     -0.01755612	     -0.00589384	      0.01274909	     -0.00539224	     -0.01228928	      0.02691938	     -0.03013800	     -0.02307375	      0.01425390	     -0.00723145	     -0.01529890	      0.03109941	     -0.03766205
      0.56666667	     -0.31799056	      0.13468579	     -0.13468579	      0.31799056	     -0.06438662	      0.52035001	      0.23389375	     -0.23389375	     -0.52035001	      0.06438662	    100.37286525	     75.28709157	     -1.75183698	    -31.14559503	     29.57892883	     67.87322792	      0.29717415	     -0.75614300	      0.33102371	     -0.37807150	     33.97073079	    -13.80333786	    -13.12910553	     -3.99149998	     91.44582048	     13.36039808	     80.90582396	     73.66422775	     91.23456973	      3.15716146	     83.01401800	     53.98647926	     90.65618620	    -13.05451904	     91.42439301	     40.83390018	     89.32371023	    -14.05457263	     96.64875805	      5.42491365	      0.00087838	     -0.03099020	     -0.00484607	      0.01573781	     -0.01823526	     -0.00394988	      0.00253493	     -0.06814282	     -0.00551755	      0.01070637	     -0.18280493	     -0.00029175	     -0.00814477	      0.00263399	     -0.00026421	      0.00029483	      0.00011793	      0.00058965	      0.00037738	      0.00113213	      0.00063682	     -0.00001233	     -0.00020815	     -0.00024978	      0.00246775	      0.00865802	      0.00602297	     -0.00807246	      0.01949101	     -0.01848718	      0.00246775	      0.00865802	      0.00602297	      0.00054374	      0.01806892	     -0.00949455	      0.00391449	      0.00481462	      0.01588529	      0.00000000	      0.00757916	      0.00000000	     -0.00706863	     -0.03266626	     -0.00624822	      0.01937726	     -0.00079638	     -0.00806436	     -0.00087835	      0.01472282	     -0.00602297	      0.00242592	      0.02124771	     -0.01756700	     -0.00589749	      0.01275699	     -0.00539558	     -0.01229690	      0.02693607	     -0.03015669	     -0.02308806	      0.01426273	     -0.00723593	     -0.01530839	      0.03111869	     -0.03768540
